HIERARCHY
ROOT Model_Hips
{
	OFFSET 0.000000 96.915077 0.000000
	CHANNELS 6 Xposition Yposition Zposition Xrotation Yrotation Zrotation
	JOINT Model_Spine
	{
		OFFSET 0.000000 11.137703 -1.289900
		CHANNELS 3 Xrotation Yrotation Zrotation
		JOINT Model_Spine1
		{
			OFFSET 0.000000 12.993942 -1.504922
			CHANNELS 3 Xrotation Yrotation Zrotation
			JOINT Model_Spine2
			{
				OFFSET 0.000000 14.850220 -1.719911
				CHANNELS 3 Xrotation Yrotation Zrotation
				JOINT Model_Neck
				{
					OFFSET 0.000000 16.706543 -1.934903
					CHANNELS 3 Xrotation Yrotation Zrotation
					JOINT Model_Head
					{
						OFFSET 0.000000 10.471298 2.002100
						CHANNELS 3 Xrotation Yrotation Zrotation
						JOINT Model_HeadTop_End
						{
							OFFSET 0.000000 20.842606 3.985100
							CHANNELS 3 Xrotation Yrotation Zrotation
							End Site
							{
								OFFSET 0.000000 21.220154 0.000000
							}
						}
					}
				}
				JOINT Model_LeftShoulder
				{
					OFFSET 7.008500 14.768600 -1.919946
					CHANNELS 3 Xrotation Yrotation Zrotation
					JOINT Model_LeftArm
					{
						OFFSET 14.126271 -3.718048 0.029937
						CHANNELS 3 Xrotation Yrotation Zrotation
						JOINT Model_LeftForeArm
						{
							OFFSET 28.282801 0.000000 0.000000
							CHANNELS 3 Xrotation Yrotation Zrotation
							JOINT Model_LeftHand
							{
								OFFSET 26.204689 0.000000 0.000000
								CHANNELS 3 Xrotation Yrotation Zrotation
								End Site
								{
									OFFSET 26.204704 0.000000 0.000000
								}
							}
						}
					}
				}
				JOINT Model_RightShoulder
				{
					OFFSET -7.008500 14.768555 -1.949840
					CHANNELS 3 Xrotation Yrotation Zrotation
					JOINT Model_RightArm
					{
						OFFSET -14.126281 -3.718018 -0.029932
						CHANNELS 3 Xrotation Yrotation Zrotation
						JOINT Model_RightForeArm
						{
							OFFSET -28.283798 0.000000 -0.000001
							CHANNELS 3 Xrotation Yrotation Zrotation
							JOINT Model_RightHand
							{
								OFFSET -26.204193 0.000000 -0.000001
								CHANNELS 3 Xrotation Yrotation Zrotation
								End Site
								{
									OFFSET -26.204208 0.000000 -0.000001
								}
							}
						}
					}
				}
			}
		}
	}
	JOINT Model_LeftUpLeg
	{
		OFFSET 8.327700 -6.193199 -0.402800
		CHANNELS 3 Xrotation Yrotation Zrotation
		JOINT Model_LeftLeg
		{
			OFFSET 0.735802 -42.108742 -0.610721
			CHANNELS 3 Xrotation Yrotation Zrotation
			JOINT Model_LeftFoot
			{
				OFFSET -0.735806 -36.833748 -0.172876
				CHANNELS 3 Xrotation Yrotation Zrotation
				JOINT Model_LeftToeBase
				{
					OFFSET -0.565857 -11.977769 16.297714
					CHANNELS 3 Xrotation Yrotation Zrotation
					JOINT Model_LeftToe_End
					{
						OFFSET -0.111712 -0.312793 7.857784
						CHANNELS 3 Xrotation Yrotation Zrotation
						End Site
						{
							OFFSET -0.111712 -0.312793 7.857784
						}
					}
				}
			}
		}
	}
	JOINT Model_RightUpLeg
	{
		OFFSET -8.327700 -6.193199 -0.516500
		CHANNELS 3 Xrotation Yrotation Zrotation
		JOINT Model_RightLeg
		{
			OFFSET -0.735785 -42.108738 -0.434061
			CHANNELS 3 Xrotation Yrotation Zrotation
			JOINT Model_RightFoot
			{
				OFFSET 0.735776 -36.833748 -0.021630
				CHANNELS 3 Xrotation Yrotation Zrotation
				JOINT Model_RightToeBase
				{
					OFFSET 0.565817 -11.977745 15.903093
					CHANNELS 3 Xrotation Yrotation Zrotation
					JOINT Model_RightToe_End
					{
						OFFSET 0.111702 -0.312791 7.811342
						CHANNELS 3 Xrotation Yrotation Zrotation
						End Site
						{
							OFFSET 0.111702 -0.312791 7.811342
						}
					}
				}
			}
		}
	}
}
MOTION
Frames: 7
Frame Time: 0.033333
0.286164 90.421036 1.833533 5.448765 2.898366 -2.962757 4.925087 1.351947 1.332457 9.857122 2.800250 1.722123 9.857124 2.800251 1.722121 -2.495270 -1.054331 -0.099083 -2.495301 -1.054332 -0.099086 -0.000000 0.000000 -0.000000 1.088504 -1.226501 -9.109577 21.951231 16.129917 -69.744612 5.201962 -103.989869 -6.123338 -0.000000 -0.000002 0.000000 0.776472 6.054094 9.529815 5.506730 -10.523594 55.529284 -70.896366 86.710454 75.613678 -0.000000 -0.000003 0.000002 -36.905438 6.207704 -1.775112 100.656279 14.398216 3.969168 -18.128365 -0.920838 4.408788 -0.898554 -2.887888 -6.627551 -0.000003 0.000000 -0.000000 -16.827520 -5.242994 4.106599 49.691545 0.058276 -1.509525 -30.201662 0.172684 -1.262971 -10.243117 12.978182 -1.678546 -0.000000 0.000002 0.000000 
0.598274 92.298180 17.343578 5.417642 2.384600 -1.596571 4.528541 2.464442 0.613789 9.061619 5.074899 0.771868 9.061616 5.074900 0.771867 -2.537351 -1.475766 -0.300584 -2.537360 -1.475765 -0.300585 0.000001 0.000000 -0.000000 1.148254 -0.358168 -8.569115 23.855964 18.056754 -67.164385 -14.069992 -97.633251 -27.270729 -0.000001 0.000002 0.000001 0.979932 7.617211 8.325395 -0.518873 -6.992992 54.863331 -115.324875 85.374154 118.291705 0.000001 0.000000 0.000001 -44.816658 3.512334 -1.337194 89.175059 9.223070 2.108855 -21.140310 1.872380 -9.692176 0.608849 1.953126 6.293162 0.000002 -0.000000 0.000000 1.890694 -7.117835 2.839948 31.885891 4.010502 -2.145220 -24.326026 0.291790 -1.483574 -17.109190 14.136452 -2.190083 0.000001 0.000001 0.000000 
0.886469 94.814819 32.581642 5.078519 3.389622 -0.581533 4.085006 3.396080 -0.092806 8.175032 7.083298 -0.193794 8.175031 7.083298 -0.193793 -2.201141 -2.075172 -0.102424 -2.201127 -2.075169 -0.102425 -0.000001 -0.000000 0.000001 1.200654 0.640298 -7.870080 25.353065 18.639689 -63.215600 -82.354822 -95.358313 -96.942166 0.000001 -0.000001 -0.000002 0.988031 8.490665 8.460561 -1.710915 -6.812156 54.891184 -130.844909 80.036143 133.016363 0.000000 0.000000 0.000001 -44.416116 1.815266 -3.211648 66.279698 10.319771 -0.846787 -19.113743 0.302412 -1.611704 -2.752085 -2.571971 0.643984 0.000001 -0.000000 0.000000 17.683394 -10.732552 1.543013 13.263263 13.469433 -1.290525 1.739304 -0.942997 0.581548 -34.445474 12.603575 -7.708917 0.000001 -0.000002 0.000000 
1.161128 96.748459 48.692047 5.135374 5.760536 0.443518 3.461040 3.850649 -0.625554 6.972621 8.293559 -1.310270 6.972614 8.293553 -1.310266 -1.850393 -2.447568 -0.120327 -1.850376 -2.447564 -0.120326 0.000003 0.000000 -0.000000 1.225899 1.615385 -7.165143 26.553882 18.461474 -58.909910 -120.438420 -99.660656 -135.964819 -0.000000 0.000000 -0.000000 0.914239 7.838656 8.834357 -2.687180 -5.968865 54.418624 -139.031738 74.999664 140.944833 -0.000001 0.000001 -0.000001 -38.333924 -1.042932 -6.306137 35.557879 8.938796 -1.258820 -15.827287 0.459146 -1.682594 -3.950850 -3.999308 -1.285454 -0.000001 -0.000000 -0.000000 23.758827 -14.770359 -0.085898 9.295644 14.159611 -2.781189 26.583598 3.490120 18.478604 -20.914726 7.887053 -19.618470 -0.000005 -0.000000 0.000001 
1.247992 96.855789 64.874390 5.381576 6.331064 0.295343 2.870032 4.046867 -0.855229 5.851196 9.216217 -2.064826 5.851192 9.216206 -2.064824 -1.007044 -2.756923 0.196003 -1.007027 -2.756926 0.196011 -0.000001 -0.000000 0.000000 1.222318 2.325120 -6.702127 27.431648 17.978649 -55.361057 -129.706631 -103.198148 -145.750964 -0.000000 -0.000000 -0.000001 0.903816 8.051995 8.948168 -2.921668 -5.210933 53.425354 -149.082006 73.249933 151.409216 0.000001 0.000000 -0.000000 -38.157282 -3.584293 -7.355662 24.420530 7.157751 -0.267495 -21.845178 0.914496 -2.764070 -3.578791 -3.399305 0.070660 -0.000004 -0.000000 0.000000 24.570193 -13.381591 -1.020826 24.077324 9.509773 -1.918563 24.651461 2.945599 15.751644 -5.974791 2.366707 -3.991732 0.000001 0.000001 -0.000000 
1.568950 96.659218 79.963028 4.058241 4.743064 -0.232709 2.967134 3.910431 -0.802250 6.066114 9.425962 -2.145530 6.066109 9.425962 -2.145529 -0.463641 -2.698632 0.511815 -0.463619 -2.698631 0.511820 0.000001 -0.000000 -0.000000 1.208929 2.458026 -6.793254 27.145228 17.231466 -52.975002 -133.053629 -104.282358 -149.464715 0.000001 -0.000000 -0.000001 1.048833 9.113030 8.184585 -2.347395 -3.939856 53.234983 -150.859905 72.070852 154.554327 -0.000001 -0.000000 -0.000004 -36.966203 -3.762203 -6.288217 23.041268 1.733238 -0.761603 -26.464710 0.689556 -1.173898 -3.528770 -4.257181 -3.841785 -0.000001 0.000001 -0.000000 23.470835 -10.433491 -2.149720 41.759561 -2.001637 -2.340456 23.830359 2.846456 14.717427 -11.325903 5.417714 -4.094159 -0.000001 -0.000000 0.000000 
1.678419 95.917213 94.796684 2.865377 5.289201 -0.220511 3.341535 3.502383 -0.800930 6.805119 8.637169 -2.156022 6.805123 8.637171 -2.156023 -0.648690 -2.429116 0.162633 -0.648701 -2.429124 0.162633 -0.000001 0.000001 -0.000001 1.193804 1.785688 -7.584699 24.269003 15.675206 -51.249331 -135.558464 -103.304227 -152.432446 0.000000 0.000001 -0.000002 1.127728 8.721483 7.552986 -0.211749 -4.528055 53.665110 -148.998104 72.404472 153.492232 -0.000000 -0.000000 -0.000002 -31.582545 -4.537809 -6.868536 19.322469 0.924784 -0.315953 -24.787366 0.644577 -0.794948 -3.414869 -3.929754 -2.745033 0.000003 0.000000 -0.000000 19.572223 -9.692553 -2.525216 61.059282 -0.310624 -2.108215 19.225246 1.922678 11.623700 -18.818261 9.949648 -6.164328 -0.000001 0.000000 -0.000001 
